<?xml version="1.0" encoding="utf-8"?>
<!-- Generator: Adobe Illustrator 27.0.1, SVG Export Plug-In . SVG Version: 6.00 Build 0)  -->
<svg version="1.1" id="Layer_1" xmlns="http://www.w3.org/2000/svg" xmlns:xlink="http://www.w3.org/1999/xlink" x="0px" y="0px"
	 viewBox="0 0 32 32" style="enable-background:new 0 0 32 32;" xml:space="preserve">
<style type="text/css">
	.st0{fill:url(#SVGID_1_);}
	.st1{fill-rule:evenodd;clip-rule:evenodd;fill:#FFFFFF;}
</style>
<g>
	<linearGradient id="SVGID_1_" gradientUnits="userSpaceOnUse" x1="16" y1="29.2479" x2="16" y2="-1.7522">
		<stop  offset="0" style="stop-color:#4FB848"/>
		<stop  offset="1" style="stop-color:#86C76C"/>
	</linearGradient>
	<circle class="st0" cx="16" cy="16" r="15.5"/>
	<g>
		<g id="WA_Logo_2_">
			<g>
				<path class="st1" d="M23.5,8.7c-1.9-1.9-4.3-2.9-7-2.9c-5.4,0-9.8,4.4-9.8,9.8c0,1.7,0.5,3.4,1.3,4.9l-1.4,5.1l5.2-1.4
					c1.4,0.8,3.1,1.2,4.7,1.2h0c0,0,0,0,0,0c5.4,0,9.8-4.4,9.8-9.8C26.3,13.1,25.3,10.6,23.5,8.7z M16.5,23.9L16.5,23.9
					c-1.5,0-2.9-0.4-4.2-1.1L12,22.5l-3.1,0.8l0.8-3L9.6,20c-0.8-1.3-1.3-2.8-1.2-4.3c0-4.5,3.7-8.2,8.2-8.2c2.2,0,4.2,0.9,5.8,2.4
					c1.5,1.5,2.4,3.6,2.4,5.8C24.7,20.2,21,23.9,16.5,23.9z M21,17.7c-0.2-0.1-1.5-0.7-1.7-0.8c-0.2-0.1-0.4-0.1-0.6,0.1
					c-0.2,0.2-0.6,0.8-0.8,1s-0.3,0.2-0.5,0.1c-0.2-0.1-1-0.4-2-1.2c-0.7-0.7-1.2-1.5-1.4-1.7s0-0.4,0.1-0.5
					c0.1-0.1,0.2-0.3,0.4-0.4c0.1-0.1,0.2-0.2,0.2-0.4c0.1-0.2,0-0.3,0-0.4c-0.1-0.1-0.6-1.3-0.8-1.8c-0.2-0.5-0.4-0.4-0.6-0.4
					c-0.1,0-0.3,0-0.5,0c-0.2,0-0.4,0.1-0.7,0.3c-0.2,0.2-0.9,0.8-0.9,2c0,1.2,0.9,2.4,1,2.5c0.1,0.2,1.7,2.6,4.2,3.7
					c0.6,0.3,1,0.4,1.4,0.5c0.6,0.2,1.1,0.2,1.5,0.1c0.5-0.1,1.5-0.6,1.7-1.2c0.2-0.6,0.2-1.1,0.1-1.2S21.2,17.9,21,17.7z"/>
			</g>
		</g>
	</g>
</g>
</svg>
